<svg width="32" height="32" viewBox="0 0 32 32" fill="none" xmlns="http://www.w3.org/2000/svg">
  <rect width="32" height="32" rx="6" fill="#10b981"/>
  <path d="M9 21h14l-2-8h-10l-2 8zM8 8h16l4 13v4c0 .6-.4 1-1 1h-1c-.6 0-1-.4-1-1v-1H8v1c0 .6-.4 1-1 1H6c-.6 0-1-.4-1-1v-4l3-13zM12 16h8M12.5 20c.8 0 1.5-.7 1.5-1.5S13.3 17 12.5 17 11 17.7 11 18.5 11.7 20 12.5 20zM19.5 20c.8 0 1.5-.7 1.5-1.5S20.3 17 19.5 17 18 17.7 18 18.5 18.7 20 19.5 20z" stroke="white" stroke-width="1.5" stroke-linecap="round" stroke-linejoin="round"/>
</svg>